<svg id="visual" viewBox="0 0 900 600" width="900" height="600" xmlns="http://www.w3.org/2000/svg" xmlns:xlink="http://www.w3.org/1999/xlink" version="1.1"><g transform="translate(439.0934770134233 279.8787308681548)"><path d="M98.1 -150.6C122.6 -136.8 135 -102.1 149.1 -68.8C163.2 -35.5 179.1 -3.7 192.3 40.2C205.6 84.2 216.1 140.3 193.1 167.8C170 195.3 113.3 194.1 63.2 203.2C13.1 212.4 -30.3 231.9 -63.3 220.1C-96.3 208.4 -118.8 165.4 -139.3 128.3C-159.9 91.1 -178.4 59.7 -183.4 26.3C-188.3 -7.2 -179.7 -42.6 -169.6 -82.8C-159.6 -123 -148.2 -167.9 -119.7 -179.9C-91.2 -191.9 -45.6 -171 -4.4 -164.1C36.8 -157.2 73.5 -164.4 98.1 -150.6" fill="#6600FF"></path></g></svg>