<svg id="visual" viewBox="0 0 900 600" width="900" height="600" xmlns="http://www.w3.org/2000/svg" xmlns:xlink="http://www.w3.org/1999/xlink" version="1.1"><g transform="translate(421.7328085129271 324.2310667143397)"><path d="M159.2 -213.2C206.8 -184.6 246.1 -138.7 249.4 -90.1C252.7 -41.5 220 9.7 187.2 45.4C154.3 81 121.2 101.2 90 125.7C58.8 150.2 29.4 179.1 -10.7 193.8C-50.7 208.5 -101.5 209 -136.5 185.7C-171.6 162.5 -190.9 115.4 -192.9 71.5C-195 27.7 -179.7 -12.9 -172.4 -62.4C-165.1 -112 -165.7 -170.5 -138.3 -205.5C-110.9 -240.6 -55.4 -252.3 0.2 -252.6C55.8 -252.9 111.7 -241.7 159.2 -213.2" fill="#6600FF"></path></g></svg>