<svg id="visual" viewBox="0 0 900 600" width="900" height="600" xmlns="http://www.w3.org/2000/svg" xmlns:xlink="http://www.w3.org/1999/xlink" version="1.1"><rect x="0" y="0" width="900" height="600" fill="#2a2a2a"></rect><path d="M0 465L21.5 469.2C43 473.3 86 481.7 128.8 487.8C171.7 494 214.3 498 257.2 498.3C300 498.7 343 495.3 385.8 476C428.7 456.7 471.3 421.3 514.2 405.2C557 389 600 392 642.8 395.3C685.7 398.7 728.3 402.3 771.2 414.8C814 427.3 857 448.7 878.5 459.3L900 470L900 601L878.5 601C857 601 814 601 771.2 601C728.3 601 685.7 601 642.8 601C600 601 557 601 514.2 601C471.3 601 428.7 601 385.8 601C343 601 300 601 257.2 601C214.3 601 171.7 601 128.8 601C86 601 43 601 21.5 601L0 601Z" fill="#6600FF" stroke-linecap="round" stroke-linejoin="miter"></path></svg>