<svg id="visual" viewBox="0 0 900 600" width="900" height="600" xmlns="http://www.w3.org/2000/svg" xmlns:xlink="http://www.w3.org/1999/xlink" version="1.1"><rect x="0" y="0" width="900" height="600" fill="#2a2a2a"></rect><path d="M0 396L12.5 410.7C25 425.3 50 454.7 75 464.7C100 474.7 125 465.3 150 471.3C175 477.3 200 498.7 225 493C250 487.3 275 454.7 300 443.5C325 432.3 350 442.7 375 455.8C400 469 425 485 450 492.2C475 499.3 500 497.7 525 493.5C550 489.3 575 482.7 600 469C625 455.3 650 434.7 675 419.8C700 405 725 396 750 410C775 424 800 461 825 474.7C850 488.3 875 478.7 887.5 473.8L900 469L900 601L887.5 601C875 601 850 601 825 601C800 601 775 601 750 601C725 601 700 601 675 601C650 601 625 601 600 601C575 601 550 601 525 601C500 601 475 601 450 601C425 601 400 601 375 601C350 601 325 601 300 601C275 601 250 601 225 601C200 601 175 601 150 601C125 601 100 601 75 601C50 601 25 601 12.5 601L0 601Z" fill="#6600FF" stroke-linecap="round" stroke-linejoin="miter"></path></svg>